<svg width="64" height="43" viewBox="0 0 64 43" fill="none" xmlns="http://www.w3.org/2000/svg">
<path d="M39.8191 15.207L39.2861 14.678C39.255 14.647 39.2303 14.6102 39.2135 14.5696C39.1967 14.529 39.188 14.4855 39.188 14.4415C39.188 14.3976 39.1967 14.3541 39.2135 14.3135C39.2303 14.2729 39.255 14.2361 39.2861 14.205L39.8181 13.677C39.8819 13.6135 39.9682 13.5779 40.0581 13.5779C40.1481 13.5779 40.2344 13.6135 40.2981 13.677L40.8301 14.205C40.8927 14.2678 40.9279 14.3529 40.9279 14.4415C40.9279 14.5302 40.8927 14.6153 40.8301 14.678L40.2961 15.206C40.2324 15.2696 40.1461 15.3052 40.0561 15.3052C39.9662 15.3052 39.8799 15.2696 39.8161 15.206" fill="#32BCAD"/>
<path fill-rule="evenodd" clip-rule="evenodd" d="M31.1278 16.405C30.3568 16.405 29.6168 16.708 29.0718 17.248C28.8024 17.5145 28.5883 17.8317 28.4421 18.1813C28.2959 18.5309 28.2203 18.906 28.2198 19.285V28.37C28.2198 28.451 28.1528 28.517 28.0718 28.517C28.0524 28.5171 28.0332 28.5134 28.0153 28.5061C27.9973 28.4988 27.981 28.4879 27.9672 28.4743C27.9535 28.4606 27.9426 28.4444 27.9351 28.4265C27.9277 28.4086 27.9238 28.3894 27.9238 28.37V19.285C27.9238 18.443 28.2608 17.636 28.8618 17.041C29.4653 16.445 30.2796 16.1111 31.1278 16.112L33.8378 16.116C34.6848 16.117 35.4978 16.452 36.0968 17.046C36.6948 17.64 37.0318 18.446 37.0308 19.285V21.218C37.0308 22.06 36.6938 22.867 36.0928 23.462C35.4918 24.057 34.6768 24.392 33.8268 24.392H29.9978C29.9784 24.3921 29.9592 24.3884 29.9413 24.3811C29.9233 24.3738 29.907 24.3629 29.8932 24.3493C29.8795 24.3356 29.8686 24.3194 29.8611 24.3015C29.8537 24.2836 29.8498 24.2644 29.8498 24.245C29.8498 24.165 29.9158 24.099 29.9978 24.099H33.8268C34.5978 24.099 35.3378 23.795 35.8838 23.255C36.4288 22.715 36.7358 21.982 36.7358 21.218V19.285C36.7358 18.523 36.4308 17.792 35.8868 17.253C35.341 16.7131 34.6045 16.4099 33.8368 16.409M33.8368 16.409L31.1278 16.405ZM37.4928 16.258C37.4928 16.178 37.5588 16.112 37.6408 16.112H38.8158C39.1878 16.112 39.5458 16.258 39.8078 16.518C40.0708 16.778 40.2178 17.132 40.2178 17.5V24.286C40.2178 24.367 40.1528 24.433 40.0708 24.433C40.0514 24.4331 40.0322 24.4294 40.0143 24.4221C39.9963 24.4148 39.98 24.4039 39.9662 24.3903C39.9525 24.3766 39.9416 24.3604 39.9341 24.3425C39.9267 24.3246 39.9228 24.3054 39.9228 24.286V17.5C39.9228 17.21 39.8058 16.93 39.5988 16.725C39.4959 16.6226 39.3737 16.5416 39.2393 16.4867C39.1049 16.4318 38.961 16.404 38.8158 16.405H37.6408C37.6214 16.4051 37.6022 16.4014 37.5843 16.3941C37.5663 16.3868 37.55 16.3759 37.5362 16.3623C37.5225 16.3486 37.5116 16.3324 37.5041 16.3145C37.4967 16.2966 37.4928 16.2774 37.4928 16.258ZM48.4558 20.757C48.2555 20.7569 48.0632 20.836 47.9208 20.977L45.1948 23.676C44.7411 24.1235 44.1291 24.374 43.4918 24.373H42.3258C42.287 24.373 42.2498 24.3576 42.2222 24.3303C42.1947 24.3029 42.1791 24.2658 42.1788 24.227C42.1788 24.147 42.2448 24.081 42.3258 24.081H43.4918C44.0518 24.081 44.5888 23.861 44.9858 23.469L47.7118 20.769C47.9101 20.5739 48.1771 20.4645 48.4553 20.4645C48.7335 20.4645 49.0006 20.5739 49.1988 20.769L51.9158 23.459C52.3118 23.851 52.8488 24.071 53.4088 24.071H54.3558C54.4378 24.071 54.5038 24.136 54.5038 24.217C54.5038 24.298 54.4378 24.363 54.3558 24.363H53.4088C52.7715 24.364 52.1596 24.1135 51.7058 23.666L48.9898 20.976C48.8473 20.8354 48.656 20.7567 48.4558 20.757ZM48.4558 19.72C48.2556 19.7203 48.0634 19.6416 47.9208 19.501L45.1948 16.802C44.7411 16.3545 44.1291 16.104 43.4918 16.105H42.3258C42.287 16.105 42.2498 16.1203 42.2222 16.1477C42.1947 16.175 42.1791 16.2122 42.1788 16.251C42.1788 16.331 42.2448 16.397 42.3258 16.397H43.4918C44.0518 16.397 44.5888 16.617 44.9858 17.009L47.7118 19.709C47.9101 19.9041 48.1771 20.0135 48.4553 20.0135C48.7335 20.0135 49.0006 19.9041 49.1988 19.709L51.9158 17.019C52.3134 16.6262 52.8499 16.4062 53.4088 16.407H54.3558C54.3751 16.4071 54.3943 16.4034 54.4122 16.3962C54.43 16.3889 54.4463 16.3782 54.4601 16.3646C54.4738 16.3511 54.4847 16.3349 54.4923 16.3172C54.4998 16.2994 54.5037 16.2803 54.5038 16.261C54.5038 16.2416 54.5 16.2224 54.4925 16.2045C54.4851 16.1866 54.4742 16.1703 54.4604 16.1567C54.4467 16.143 54.4303 16.1322 54.4124 16.1249C54.3944 16.1176 54.3752 16.1139 54.3558 16.114H53.4088C52.7698 16.114 52.1588 16.365 51.7058 16.812L48.9898 19.502C48.8471 19.6422 48.6559 19.7206 48.4558 19.72Z" fill="#20252A"/>
<path d="M21.125 25.9509C20.5454 25.9522 19.9888 25.7247 19.576 25.3179L17.34 23.1019C17.2606 23.0266 17.1554 22.9846 17.046 22.9846C16.9366 22.9846 16.8313 23.0266 16.752 23.1019L14.508 25.3239C14.3044 25.5266 14.0627 25.6871 13.7969 25.7961C13.531 25.905 13.2463 25.9604 12.959 25.9589H12.522L15.356 28.7649C15.7826 29.1863 16.358 29.4225 16.9575 29.4225C17.557 29.4225 18.1324 29.1863 18.559 28.7649L21.399 25.9529L21.125 25.9509ZM12.96 18.1199C13.5393 18.1192 14.0956 18.347 14.508 18.7539L16.752 20.9769C16.8305 21.0539 16.9361 21.097 17.046 21.097C17.1559 21.097 17.2615 21.0539 17.34 20.9769L19.576 18.7629C19.7793 18.5598 20.0209 18.3991 20.2868 18.29C20.5527 18.181 20.8376 18.1259 21.125 18.1279H21.394L18.554 15.3159C18.128 14.8941 17.5525 14.6579 16.953 14.6589C16.3536 14.6598 15.7784 14.8957 15.351 15.3159L12.521 18.1199H12.96Z" fill="#32BCAD"/>
<path d="M23.7431 20.454L22.0271 18.755C21.9885 18.7715 21.947 18.7797 21.9051 18.779H21.1251C20.7181 18.78 20.3291 18.94 20.0411 19.224L17.8051 21.436C17.6029 21.6357 17.3302 21.7477 17.0461 21.7477C16.7619 21.7477 16.4892 21.6357 16.2871 21.436L14.0431 19.216C13.7543 18.9315 13.3655 18.7714 12.9601 18.77H12.0021C11.9623 18.7705 11.9229 18.763 11.8861 18.748L10.1601 20.454C9.73507 20.875 9.49707 21.445 9.49707 22.04C9.49707 22.635 9.73507 23.205 10.1591 23.626L11.8831 25.332C11.9195 25.3169 11.9586 25.3091 11.9981 25.309H12.9601C13.3654 25.308 13.7541 25.1483 14.0431 24.864L16.2871 22.642C16.4928 22.4493 16.7641 22.342 17.0461 22.342C17.328 22.342 17.5994 22.4493 17.8051 22.642L20.0411 24.856C20.3291 25.139 20.7181 25.299 21.1241 25.3H21.9041C21.9474 25.3 21.9884 25.308 22.0271 25.324L23.7431 23.625C23.9525 23.4175 24.1188 23.1706 24.2326 22.8986C24.3463 22.6266 24.4053 22.3349 24.4061 22.04C24.4065 21.7449 24.3482 21.4526 24.2343 21.1803C24.1205 20.9079 23.9535 20.6611 23.7431 20.454Z" fill="#32BCAD"/>
<path d="M36.2348 21.219V19.285C36.2348 18.657 35.9848 18.055 35.5348 17.608C35.0823 17.1601 34.4715 16.9086 33.8348 16.908L31.1278 16.904C30.4878 16.904 29.8738 17.157 29.4228 17.604C29.2005 17.824 29.024 18.0857 28.9033 18.3742C28.7827 18.6628 28.7203 18.9723 28.7198 19.285V28.37C28.7198 28.5419 28.6516 28.7067 28.53 28.8282C28.4085 28.9497 28.2437 29.018 28.0718 29.018C27.9 29.018 27.7351 28.9497 27.6136 28.8282C27.4921 28.7067 27.4238 28.5419 27.4238 28.37V19.285C27.4242 18.8013 27.5205 18.3225 27.7071 17.8762C27.8936 17.4299 28.1668 17.0251 28.5108 16.685C29.2079 15.9967 30.1482 15.6112 31.1278 15.612L33.8378 15.615C34.8158 15.6165 35.7538 16.0031 36.4488 16.691C36.7917 17.0304 37.0638 17.4344 37.2495 17.8797C37.4352 18.3249 37.5309 18.8026 37.5308 19.285V21.219C37.5308 22.194 37.1388 23.129 36.4438 23.817C35.7471 24.506 34.8067 24.8923 33.8268 24.892H29.9978C29.849 24.8918 29.7048 24.8406 29.5892 24.7468C29.4736 24.6531 29.3937 24.5226 29.3628 24.377L29.3508 24.245L29.3628 24.113C29.3939 23.9676 29.4739 23.8373 29.5895 23.7438C29.705 23.6502 29.8492 23.5991 29.9978 23.599H33.8278C34.4678 23.599 35.0808 23.346 35.5318 22.899C35.9828 22.452 36.2348 21.849 36.2348 21.219ZM43.4918 15.604C44.2618 15.604 44.9998 15.907 45.5458 16.446V16.447L48.2728 19.145L48.3108 19.178C48.3609 19.2113 48.4209 19.2261 48.4807 19.2201C48.5405 19.2141 48.5964 19.1876 48.6388 19.145L51.3538 16.457C51.901 15.9163 52.6395 15.6133 53.4088 15.614H54.3558C54.4429 15.6106 54.5297 15.6248 54.6111 15.6557C54.6925 15.6867 54.7669 15.7337 54.8297 15.7941C54.8925 15.8545 54.9424 15.9269 54.9765 16.007C55.0107 16.0872 55.0283 16.1734 55.0283 16.2605C55.0283 16.3476 55.0107 16.4338 54.9765 16.514C54.9424 16.5941 54.8925 16.6665 54.8297 16.7269C54.7669 16.7873 54.6925 16.8343 54.6111 16.8653C54.5297 16.8962 54.4429 16.9104 54.3558 16.907H53.4088C52.9798 16.907 52.5688 17.076 52.2678 17.374L49.5508 20.064C49.4846 20.1281 49.413 20.1863 49.3368 20.238C49.4128 20.29 49.4842 20.3487 49.5508 20.414L52.2678 23.104C52.5698 23.402 52.9798 23.57 53.4088 23.57H54.3558C54.4429 23.5666 54.5297 23.5808 54.6111 23.6117C54.6925 23.6427 54.7669 23.6897 54.8297 23.7501C54.8925 23.8105 54.9424 23.8829 54.9765 23.963C55.0107 24.0432 55.0283 24.1294 55.0283 24.2165C55.0283 24.3036 55.0107 24.3898 54.9765 24.47C54.9424 24.5501 54.8925 24.6225 54.8297 24.6829C54.7669 24.7433 54.6925 24.7903 54.6111 24.8213C54.5297 24.8522 54.4429 24.8664 54.3558 24.863H53.4088C52.6402 24.864 51.9021 24.5618 51.3548 24.022L48.6388 21.332C48.5961 21.2897 48.5402 21.2636 48.4804 21.2579C48.4206 21.2523 48.3607 21.2675 48.3108 21.301L48.2728 21.332L45.5468 24.032C44.9993 24.572 44.2608 24.8742 43.4918 24.873H42.3258C42.1772 24.8726 42.0332 24.8212 41.9178 24.7275C41.8025 24.6338 41.7227 24.5034 41.6918 24.358L41.6788 24.227L41.6918 24.096C41.7225 23.9504 41.8022 23.8198 41.9176 23.7259C42.033 23.632 42.1771 23.5805 42.3258 23.58H43.4918C43.9218 23.58 44.3318 23.412 44.6338 23.113L47.3598 20.414C47.4265 20.3487 47.4975 20.29 47.5728 20.238C47.497 20.1862 47.4257 20.128 47.3598 20.064L44.6338 17.364C44.3295 17.0642 43.9191 16.8967 43.4918 16.898H42.3258C42.1772 16.8976 42.0332 16.8462 41.9178 16.7525C41.8025 16.6588 41.7227 16.5284 41.6918 16.383L41.6788 16.251L41.6918 16.119C41.7229 15.9738 41.8028 15.8436 41.9181 15.7501C42.0334 15.6566 42.1773 15.6054 42.3258 15.605L43.4918 15.604ZM40.7188 24.286C40.7188 24.4579 40.6506 24.6227 40.529 24.7442C40.4075 24.8657 40.2427 24.934 40.0708 24.934C39.899 24.934 39.7341 24.8657 39.6126 24.7442C39.4911 24.6227 39.4228 24.4579 39.4228 24.286V17.5C39.4216 17.3423 39.3584 17.1914 39.2468 17.08C39.1323 16.9669 38.9778 16.9036 38.8168 16.904H37.6418C37.5532 16.91 37.4643 16.8978 37.3806 16.868C37.297 16.8383 37.2203 16.7917 37.1554 16.731C37.0905 16.6704 37.0388 16.5971 37.0034 16.5156C36.968 16.4342 36.9498 16.3463 36.9498 16.2575C36.9498 16.1687 36.968 16.0808 37.0034 15.9994C37.0388 15.9179 37.0905 15.8446 37.1554 15.784C37.2203 15.7234 37.297 15.6767 37.3806 15.647C37.4643 15.6172 37.5532 15.605 37.6418 15.611H38.8158C39.3188 15.611 39.8028 15.809 40.1598 16.163C40.5168 16.517 40.7188 16.998 40.7188 17.5V24.286Z" fill="#20252A"/>
<path d="M30.4022 27.5981C30.2603 27.6045 30.1195 27.6259 29.9822 27.6621V28.2151C30.0874 28.2515 30.1979 28.2701 30.3092 28.2701C30.5892 28.2701 30.7222 28.1761 30.7222 27.9311C30.7222 27.7011 30.6142 27.5981 30.4022 27.5981ZM29.8882 28.6281V27.5321H29.9652L29.9732 27.5781C30.1165 27.5414 30.2622 27.5181 30.4102 27.5081C30.5126 27.5015 30.6141 27.5308 30.6972 27.5911C30.7912 27.6691 30.8232 27.7941 30.8232 27.9311C30.8232 28.0671 30.7762 28.2081 30.6432 28.2831C30.5421 28.3326 30.4306 28.3569 30.3182 28.3541C30.2035 28.3534 30.0915 28.3368 29.9822 28.3041V28.6251L29.8882 28.6281ZM31.5272 27.5951C31.2472 27.5951 31.1222 27.6821 31.1222 27.9271C31.1222 28.1631 31.2452 28.2691 31.5272 28.2691C31.8092 28.2691 31.9312 28.1831 31.9312 27.9391C31.9312 27.7031 31.8082 27.5951 31.5272 27.5951ZM31.8872 28.2691C31.7932 28.3361 31.6692 28.3551 31.5272 28.3551C31.3842 28.3551 31.2572 28.3351 31.1652 28.2691C31.0632 28.1981 31.0202 28.0821 31.0202 27.9331C31.0202 27.7841 31.0632 27.6681 31.1652 27.5951C31.2562 27.5301 31.3812 27.5091 31.5272 27.5091C31.6722 27.5091 31.7952 27.5301 31.8872 27.5951C31.9922 27.6681 32.0322 27.7871 32.0322 27.9311C32.0322 28.0751 31.9902 28.1981 31.8882 28.2691M33.2152 28.3331L32.9022 27.6681H32.8962L32.5882 28.3331H32.5002L32.1702 27.5311H32.2742L32.5512 28.2041H32.5582L32.8582 27.5311H32.9452L33.2552 28.2041H33.2612L33.5312 27.5311H33.6342L33.3012 28.3331H33.2152ZM34.2382 27.5931C33.9782 27.5931 33.8902 27.7081 33.8742 27.8731H34.6012C34.5932 27.6911 34.4992 27.5931 34.2382 27.5931ZM34.2342 28.3551C34.0792 28.3551 33.9782 28.3331 33.8982 28.2661C33.8032 28.1861 33.7712 28.0681 33.7712 27.9331C33.7712 27.7991 33.8152 27.6681 33.9222 27.5901C34.0168 27.5315 34.1271 27.5036 34.2382 27.5101C34.3511 27.5032 34.4635 27.53 34.5612 27.5871C34.6782 27.6651 34.7012 27.8011 34.7012 27.9571H33.8712C33.8752 28.1221 33.9292 28.2671 34.2432 28.2671C34.3832 28.2638 34.5225 28.2484 34.6612 28.2211V28.3051C34.5212 28.3338 34.3795 28.3504 34.2362 28.3551M34.9722 28.3331V27.5311H35.0482L35.0562 27.5781C35.2282 27.5351 35.3082 27.5081 35.4592 27.5081H35.4702V27.5981H35.4472C35.3212 27.5981 35.2442 27.6151 35.0672 27.6611V28.3311L34.9722 28.3331ZM36.0202 27.5931C35.7602 27.5931 35.6722 27.7081 35.6562 27.8731H36.3832C36.3752 27.6911 36.2812 27.5931 36.0202 27.5931ZM36.0162 28.3551C35.8612 28.3551 35.7612 28.3331 35.6802 28.2661C35.5862 28.1861 35.5542 28.0681 35.5542 27.9331C35.5542 27.7981 35.5972 27.6681 35.7042 27.5901C35.7988 27.5315 35.9091 27.5036 36.0202 27.5101C36.1331 27.5032 36.2455 27.53 36.3432 27.5871C36.4602 27.6651 36.4852 27.8011 36.4852 27.9571H35.6532C35.6562 28.1221 35.7102 28.2671 36.0252 28.2671C36.1652 28.2638 36.3045 28.2484 36.4432 28.2211V28.3051C36.3032 28.3338 36.1615 28.3504 36.0182 28.3551M37.5192 27.6491C37.4139 27.6131 37.3034 27.5948 37.1922 27.5951C36.9122 27.5951 36.7792 27.6891 36.7792 27.9331C36.7792 28.1651 36.8882 28.2661 37.0992 28.2661C37.2418 28.2594 37.3819 28.2388 37.5192 28.2041V27.6491ZM37.5372 28.3331L37.5292 28.2861C37.3852 28.3241 37.2392 28.3474 37.0912 28.3561C36.9887 28.3636 36.8869 28.3342 36.8042 28.2731C36.7102 28.1961 36.6782 28.0701 36.6782 27.9341C36.6782 27.7911 36.7252 27.6561 36.8582 27.5841C36.9593 27.5335 37.0711 27.5081 37.1842 27.5101C37.2982 27.5121 37.4099 27.5288 37.5192 27.5601V27.1941H37.6142V28.3331H37.5372ZM38.9992 27.5981C38.8573 27.6045 38.7165 27.6259 38.5792 27.6621V28.2141C38.6843 28.2509 38.7948 28.2698 38.9062 28.2701C39.1862 28.2701 39.3192 28.1761 39.3192 27.9311C39.3192 27.7011 39.2102 27.5981 38.9992 27.5981ZM39.2402 28.2841C39.1391 28.3336 39.0276 28.3579 38.9152 28.3551C38.7919 28.3551 38.6712 28.3351 38.5532 28.2951L38.5482 28.3331H38.4842V27.1931H38.5792V27.5761C38.7194 27.5404 38.8627 27.5179 39.0072 27.5091C39.1093 27.5027 39.2104 27.532 39.2932 27.5921C39.3882 27.6691 39.4202 27.7951 39.4202 27.9321C39.4202 28.0681 39.3732 28.2091 39.2402 28.2841ZM39.5462 28.6391V28.5521C39.5932 28.5571 39.6362 28.5601 39.6662 28.5601C39.7832 28.5601 39.8552 28.5261 39.9192 28.3951L39.9492 28.3311L39.5252 27.5301H39.6352L39.9962 28.2221H40.0032L40.3472 27.5301H40.4552L39.9992 28.4301C39.9162 28.5931 39.8262 28.6471 39.6612 28.6471C39.6221 28.6467 39.583 28.6441 39.5442 28.6391M41.7602 27.8761H41.4472V28.1561H41.7602C41.9772 28.1561 42.0592 28.1321 42.0592 28.0161C42.0592 27.8911 41.9472 27.8761 41.7602 27.8761ZM41.7022 27.4231H41.4462V27.7081H41.7042C41.9172 27.7081 42.0022 27.6831 42.0022 27.5641C42.0022 27.4371 41.8942 27.4231 41.7022 27.4231ZM42.1892 28.2601C42.0742 28.3331 41.9342 28.3361 41.6792 28.3361H41.2002V27.2461H41.6682C41.8882 27.2461 42.0232 27.2491 42.1352 27.3161C42.172 27.338 42.202 27.3697 42.2218 27.4077C42.2416 27.4456 42.2504 27.4884 42.2472 27.5311C42.2472 27.6451 42.2002 27.7211 42.0742 27.7731V27.7791C42.2152 27.8111 42.3062 27.8821 42.3062 28.0361C42.3099 28.0801 42.3008 28.1243 42.2801 28.1633C42.2593 28.2023 42.2278 28.2346 42.1892 28.2561M43.2642 27.9961C43.1671 27.9874 43.0697 27.9834 42.9722 27.9841C42.8082 27.9841 42.7502 28.0171 42.7502 28.0921C42.7502 28.1671 42.7972 28.1991 42.9242 28.1991C43.0388 28.195 43.1527 28.1792 43.2642 28.1521V27.9961ZM43.3112 28.3331L43.3052 28.2861C43.1619 28.3261 43.0152 28.3494 42.8652 28.3561C42.7797 28.3618 42.6946 28.3412 42.6212 28.2971C42.5898 28.2709 42.5654 28.2373 42.5502 28.1993C42.535 28.1613 42.5295 28.1201 42.5342 28.0794C42.5388 28.0388 42.5535 27.9999 42.5769 27.9664C42.6003 27.9328 42.6317 27.9056 42.6682 27.8871C42.7651 27.8518 42.8682 27.8368 42.9712 27.8431C43.0562 27.8431 43.1702 27.8481 43.2642 27.8551V27.8401C43.2642 27.7151 43.1812 27.6741 42.9542 27.6741C42.8652 27.6741 42.7582 27.6781 42.6552 27.6881V27.5261C42.771 27.5167 42.887 27.5114 43.0032 27.5101C43.1452 27.5101 43.2902 27.5211 43.3812 27.5851C43.4722 27.6481 43.4912 27.7401 43.4912 27.8591V28.3331H43.3112ZM44.5472 28.3321V27.8901C44.5472 27.7441 44.4722 27.6921 44.3372 27.6921C44.2257 27.6972 44.1151 27.714 44.0072 27.7421V28.3321H43.7812V27.5321H43.9652L43.9732 27.5821C44.1152 27.5421 44.2595 27.5178 44.4062 27.5091C44.5062 27.5011 44.6052 27.5311 44.6842 27.5911C44.7472 27.6491 44.7712 27.7281 44.7712 27.8421V28.3321H44.5472ZM45.4092 28.3551C45.3042 28.3551 45.1912 28.3401 45.1082 28.2711C45.0082 28.1911 44.9802 28.0671 44.9802 27.9311C44.9802 27.8051 45.0212 27.6661 45.1442 27.5881C45.2529 27.5284 45.3764 27.5009 45.5002 27.5091C45.5942 27.5091 45.6842 27.5151 45.7832 27.5251V27.6971C45.6974 27.6887 45.6113 27.6841 45.5252 27.6831C45.3112 27.6831 45.2092 27.7491 45.2092 27.9331C45.2092 28.1061 45.2852 28.1811 45.4612 28.1811C45.5755 28.1769 45.6893 28.1628 45.8012 28.1391V28.3041C45.6712 28.3341 45.5399 28.3511 45.4072 28.3551M46.4702 27.6771C46.2552 27.6771 46.1612 27.7441 46.1612 27.9271C46.1612 28.1091 46.2552 28.1871 46.4712 28.1871C46.6852 28.1871 46.7772 28.1221 46.7772 27.9391C46.7772 27.7571 46.6852 27.6771 46.4702 27.6771ZM46.8582 28.2711C46.7592 28.3371 46.6292 28.3551 46.4702 28.3551C46.3122 28.3551 46.1792 28.3351 46.0812 28.2711C45.9692 28.1981 45.9292 28.0771 45.9292 27.9331C45.9292 27.7891 45.9692 27.6661 46.0812 27.5931C46.1792 27.5281 46.3082 27.5091 46.4712 27.5091C46.6322 27.5091 46.7592 27.5291 46.8582 27.5931C46.9702 27.6661 47.0082 27.7891 47.0082 27.9311C47.0082 28.0731 46.9682 28.1981 46.8582 28.2711ZM48.3142 28.3551C48.1772 28.3551 48.0302 28.3321 47.9192 28.2421C47.7892 28.1341 47.7482 27.9681 47.7482 27.7881C47.7482 27.6281 47.8002 27.4381 47.9712 27.3271C48.1042 27.2411 48.2692 27.2231 48.4352 27.2231C48.5559 27.2244 48.6835 27.2311 48.8182 27.2431V27.4381C48.6941 27.4278 48.5697 27.4221 48.4452 27.4211C48.1332 27.4211 48.0002 27.5381 48.0002 27.7881C48.0002 28.0391 48.1232 28.1581 48.3542 28.1581C48.5188 28.1521 48.6818 28.1304 48.8432 28.0931V28.2871C48.6692 28.3271 48.4935 28.3498 48.3142 28.3551ZM49.5072 27.6521C49.3172 27.6521 49.2472 27.7191 49.2322 27.8391H49.7782C49.7712 27.7091 49.6942 27.6521 49.5072 27.6521ZM49.4732 28.3541C49.3402 28.3541 49.2202 28.3381 49.1302 28.2641C49.0402 28.1921 49.0002 28.0661 49.0002 27.9301C49.0002 27.8081 49.0402 27.6711 49.1532 27.5921C49.2522 27.5221 49.3782 27.5081 49.5072 27.5081C49.6222 27.5081 49.7582 27.5211 49.8572 27.5881C49.9872 27.6791 49.9992 27.8191 49.9992 27.9841H49.2312C49.2362 28.1061 49.3012 28.1851 49.5292 28.1851C49.6745 28.1818 49.8182 28.1681 49.9602 28.1441V28.3011C49.7995 28.3311 49.6372 28.3488 49.4732 28.3541ZM51.0052 28.3321V27.8901C51.0052 27.7441 50.9302 27.6921 50.7952 27.6921C50.6837 27.6972 50.5731 27.714 50.4652 27.7421V28.3321H50.2392V27.5321H50.4232L50.4312 27.5821C50.5732 27.5421 50.7175 27.5178 50.8642 27.5091C50.9642 27.5011 51.0632 27.5311 51.1422 27.5911C51.2052 27.6491 51.2292 27.7281 51.2292 27.8421V28.3321H51.0052ZM51.8732 28.3551C51.7642 28.3551 51.6652 28.3251 51.6112 28.2411C51.5657 28.1686 51.5447 28.0834 51.5512 27.9981V27.6981H51.3882V27.5321H51.5512L51.5752 27.2891H51.7752V27.5311H52.0932V27.6981H51.7752V27.9551C51.7725 28.0071 51.78 28.059 51.7972 28.1081C51.8212 28.1611 51.8742 28.1821 51.9452 28.1821C51.9992 28.1821 52.0528 28.1768 52.1062 28.1661V28.3261C52.0296 28.3431 51.9516 28.3532 51.8732 28.3561M52.3152 28.3331V27.5311H52.4992L52.5072 27.5821C52.6458 27.5355 52.7909 27.5108 52.9372 27.5091V27.7031H52.8572C52.7505 27.7031 52.6449 27.7171 52.5402 27.7451V28.3361L52.3152 28.3331ZM53.7592 27.9961C53.6621 27.9874 53.5647 27.9834 53.4672 27.9841C53.3022 27.9841 53.2442 28.0171 53.2442 28.0921C53.2442 28.1671 53.2912 28.1991 53.4182 28.1991C53.5342 28.1951 53.6475 28.1794 53.7582 28.1521L53.7592 27.9961ZM53.8062 28.3331L53.7992 28.2861C53.6556 28.3258 53.508 28.3492 53.3592 28.3561C53.2737 28.3618 53.1886 28.3412 53.1152 28.2971C53.0856 28.2745 53.0619 28.245 53.0463 28.2112C53.0306 28.1774 53.0234 28.1403 53.0252 28.1031C53.0224 28.0573 53.034 28.0117 53.0584 27.9728C53.0827 27.9339 53.1187 27.9036 53.1612 27.8861C53.2582 27.8511 53.3613 27.8365 53.4642 27.8431C53.5492 27.8431 53.6642 27.8481 53.7582 27.8551V27.8401C53.7582 27.7151 53.6742 27.6741 53.4472 27.6741C53.3477 27.6738 53.2482 27.6785 53.1492 27.6881V27.5261C53.2632 27.5161 53.3912 27.5101 53.4962 27.5101C53.6382 27.5101 53.7832 27.5211 53.8742 27.5851C53.9652 27.6481 53.9842 27.7401 53.9842 27.8591V28.3331H53.8062ZM54.2732 27.1941H54.5002V28.3331H54.2732V27.1941Z" fill="#20252A"/>
</svg>
